{
    "asset" : {
        "generator" : "Khronos glTF Blender I/O v1.5.17",
        "version" : "2.0"
    },
    "scene" : 0,
    "scenes" : [
        {
            "extras" : {
                "glTF2ExportSettings" : {
                    "export_apply" : 1,
                    "export_cameras" : 1,
                    "export_current_frame" : 1,
                    "export_extras" : 1,
                    "export_format" : "GLTF_EMBEDDED",
                    "export_lights" : 1,
                    "export_tangents" : 1,
                    "use_selection" : 1
                }
            },
            "name" : "Scene",
            "nodes" : [
                0,
                1,
                2
            ]
        }
    ],
    "nodes" : [
        {
            "mesh" : 0,
            "name" : "Sphere",
            "rotation" : [
                0,
                -0.7071068286895752,
                0,
                0.7071068286895752
            ]
        },
        {
            "mesh" : 1,
            "name" : "BezierCurve",
            "rotation" : [
                0.7071068286895752,
                0,
                0,
                0.7071068286895752
            ],
            "translation" : [
                -0.003780066967010498,
                -0.5053467750549316,
                1.0310077667236328
            ]
        },
        {
            "mesh" : 2,
            "name" : "Sphere.001",
            "scale" : [
                0.13604626059532166,
                0.13604626059532166,
                0.13604626059532166
            ],
            "translation" : [
                -0.32916542887687683,
                0.20889344811439514,
                0.9038091897964478
            ]
        }
    ],
    "materials" : [
        {
            "doubleSided" : true,
            "name" : "Material.001",
            "pbrMetallicRoughness" : {
                "baseColorFactor" : [
                    0.09300336241722107,
                    0.06511282920837402,
                    1,
                    1
                ],
                "metallicFactor" : 0,
                "roughnessFactor" : 0.5
            }
        },
        {
            "doubleSided" : true,
            "name" : "Material.002",
            "pbrMetallicRoughness" : {
                "metallicFactor" : 0,
                "roughnessFactor" : 0.5
            }
        }
    ],
    "meshes" : [
        {
            "name" : "Sphere",
            "primitives" : [
                {
                    "attributes" : {
                        "POSITION" : 0,
                        "NORMAL" : 1,
                        "TEXCOORD_0" : 2
                    },
                    "indices" : 3,
                    "material" : 0
                }
            ]
        },
        {
            "name" : "BezierCurve.002",
            "primitives" : [
                {
                    "attributes" : {
                        "POSITION" : 4,
                        "NORMAL" : 5,
                        "TANGENT" : 6,
                        "TEXCOORD_0" : 7
                    },
                    "indices" : 8,
                    "material" : 1
                }
            ]
        },
        {
            "name" : "Sphere.001",
            "primitives" : [
                {
                    "attributes" : {
                        "POSITION" : 9,
                        "NORMAL" : 10,
                        "TANGENT" : 11,
                        "TEXCOORD_0" : 12
                    },
                    "indices" : 13,
                    "material" : 1
                }
            ]
        }
    ],
    "accessors" : [
        {
            "bufferView" : 0,
            "componentType" : 5126,
            "count" : 692,
            "max" : [
                1.000000238418579,
                1,
                1.0000003576278687
            ],
            "min" : [
                -0.9999998211860657,
                -1.379688024520874,
                -1
            ],
            "type" : "VEC3"
        },
        {
            "bufferView" : 1,
            "componentType" : 5126,
            "count" : 692,
            "type" : "VEC3"
        },
        {
            "bufferView" : 2,
            "componentType" : 5126,
            "count" : 692,
            "type" : "VEC2"
        },
        {
            "bufferView" : 3,
            "componentType" : 5123,
            "count" : 3834,
            "type" : "SCALAR"
        },
        {
            "bufferView" : 4,
            "componentType" : 5126,
            "count" : 849,
            "max" : [
                0.9040547609329224,
                0.06541424244642258,
                0.20074182748794556
            ],
            "min" : [
                -0.8951665759086609,
                -0.5023888349533081,
                -0.09175905585289001
            ],
            "type" : "VEC3"
        },
        {
            "bufferView" : 5,
            "componentType" : 5126,
            "count" : 849,
            "type" : "VEC3"
        },
        {
            "bufferView" : 6,
            "componentType" : 5126,
            "count" : 849,
            "type" : "VEC4"
        },
        {
            "bufferView" : 7,
            "componentType" : 5126,
            "count" : 849,
            "type" : "VEC2"
        },
        {
            "bufferView" : 8,
            "componentType" : 5123,
            "count" : 4308,
            "type" : "SCALAR"
        },
        {
            "bufferView" : 9,
            "componentType" : 5126,
            "count" : 846,
            "max" : [
                5.839022159576416,
                1,
                1.0000003576278687
            ],
            "min" : [
                -0.9999999403953552,
                -1,
                -1.0000004768371582
            ],
            "type" : "VEC3"
        },
        {
            "bufferView" : 10,
            "componentType" : 5126,
            "count" : 846,
            "type" : "VEC3"
        },
        {
            "bufferView" : 11,
            "componentType" : 5126,
            "count" : 846,
            "type" : "VEC4"
        },
        {
            "bufferView" : 12,
            "componentType" : 5126,
            "count" : 846,
            "type" : "VEC2"
        },
        {
            "bufferView" : 13,
            "componentType" : 5123,
            "count" : 4320,
            "type" : "SCALAR"
        }
    ],
    "bufferViews" : [
        {
            "buffer" : 0,
            "byteLength" : 8304,
            "byteOffset" : 0
        },
        {
            "buffer" : 0,
            "byteLength" : 8304,
            "byteOffset" : 8304
        },
        {
            "buffer" : 0,
            "byteLength" : 5536,
            "byteOffset" : 16608
        },
        {
            "buffer" : 0,
            "byteLength" : 7668,
            "byteOffset" : 22144
        },
        {
            "buffer" : 0,
            "byteLength" : 10188,
            "byteOffset" : 29812
        },
        {
            "buffer" : 0,
            "byteLength" : 10188,
            "byteOffset" : 40000
        },
        {
            "buffer" : 0,
            "byteLength" : 13584,
            "byteOffset" : 50188
        },
        {
            "buffer" : 0,
            "byteLength" : 6792,
            "byteOffset" : 63772
        },
        {
            "buffer" : 0,
            "byteLength" : 8616,
            "byteOffset" : 70564
        },
        {
            "buffer" : 0,
            "byteLength" : 10152,
            "byteOffset" : 79180
        },
        {
            "buffer" : 0,
            "byteLength" : 10152,
            "byteOffset" : 89332
        },
        {
            "buffer" : 0,
            "byteLength" : 13536,
            "byteOffset" : 99484
        },
        {
            "buffer" : 0,
            "byteLength" : 6768,
            "byteOffset" : 113020
        },
        {
            "buffer" : 0,
            "byteLength" : 8640,
            "byteOffset" : 119788
        }
    ],
    "buffers" : [
        {
            "byteLength" : 128428,
            "uri" : "data:application/octet-stream;base64,"
        }
    ]
}
